SplineFontDB: 3.0
FontName: RKLirioDoVale-Regular
FullName: RK Lirio do Vale Regular
FamilyName: Lirio do Vale
Weight: Regular
Copyright: Copyright (c) 2015, Luis Walker
UComments: "2015-7-4: Created with FontForge (http://fontforge.org)"
Version: 001.000
ItalicAngle: 0
UnderlinePosition: -100
UnderlineWidth: 50
Ascent: 700
Descent: 300
InvalidEm: 0
LayerCount: 2
Layer: 0 0 "Back" 1
Layer: 1 0 "Fore" 0
XUID: [1021 1010 -1317725610 8461834]
OS2Version: 0
OS2_WeightWidthSlopeOnly: 0
OS2_UseTypoMetrics: 1
CreationTime: 1436019825
ModificationTime: 1436149496
OS2TypoAscent: 0
OS2TypoAOffset: 1
OS2TypoDescent: 0
OS2TypoDOffset: 1
OS2TypoLinegap: 0
OS2WinAscent: 0
OS2WinAOffset: 1
OS2WinDescent: 0
OS2WinDOffset: 1
HheadAscent: 0
HheadAOffset: 1
HheadDescent: 0
HheadDOffset: 1
OS2CapHeight: 0
OS2XHeight: 0
OS2Vendor: 'PfEd'
MarkAttachClasses: 1
DEI: 91125
LangName: 1033
Encoding: UnicodeBmp
UnicodeInterp: none
NameList: AGL For New Fonts
DisplaySize: -48
AntiAlias: 1
FitToEm: 1
WinInfo: 60 20 4
BeginPrivate: 0
EndPrivate
Grid
-43 604 m 1
 301 604 l 1
 301 604 l 1
 -43 604 l 1
 -43 604 l 1
-39 467 m 1
 305 467 l 1
 305 467 l 1
 -39 467 l 1
 -39 467 l 1
-37 329 m 1
 312 329 l 1
 312 329 l 1
 -37 329 l 1
 -37 329 l 1
-42 200 m 1
 312 200 l 1
 312 200 l 1
 -42 200 l 1
 -42 200 l 1
-36 -202 m 1
 297 -202 l 1
 297 -202 l 1
 -36 -202 l 1
 -36 -202 l 1
EndSplineSet
TeXData: 1 0 0 346030 173015 115343 0 1048576 115343 783286 444596 497025 792723 393216 433062 380633 303038 157286 324010 404750 52429 2506097 1059062 262144
BeginChars: 65537 41

StartChar: o
Encoding: 111 111 0
Width: 322
VWidth: 0
Flags: HW
LayerCount: 2
Back
Fore
SplineSet
149 302 m 3
 93.2734375 302 80 245 80 171 c 3
 80 95 110 44 149 44 c 3
 212 44 224 103 224 172 c 3
 224 239 204 302 149 302 c 3
18 141 m 3
 18 227.323242188 73 349 165 349 c 3
 230 349 291 297 291 196 c 3
 291 87 211 -8 131 -8 c 3
 58.97265625 -8 18 72 18 141 c 3
EndSplineSet
EndChar

StartChar: n
Encoding: 110 110 1
Width: 316
VWidth: 0
Flags: HW
LayerCount: 2
Back
Fore
SplineSet
51 -10 m 1
 20 13 l 17
 20 13 37 116 37 183 c 7
 37 264 23 322 23 322 c 5
 57 346 l 5
 74 330 l 5
 74 330 88 266 88 177 c 5
 109.057617188 222.354492188 143.73046875 340 205 340 c 3
 232 340 255 306 255 279 c 3
 255 206 241 161 241 99 c 3
 241 79 241 46 249 46 c 3
 258 46 264 48 268 55 c 1
 296 24 l 17
 281 10 267 -9 241 -9 c 3
 211 -9 181 38 181 68 c 3
 181 131.866210938 198 208.479492188 198 254 c 3
 198 271.9140625 190.415039062 282 180 282 c 3
 164.791015625 282 108.075195312 175.965820312 80 82 c 1
 77 16 l 1
 51 -10 l 1
EndSplineSet
EndChar

StartChar: i
Encoding: 105 105 2
Width: 175
VWidth: 0
Flags: HW
LayerCount: 2
Back
SplineSet
42.2841796875 206 m 21xb4
 10.2841796875 191 -62.7158203125 143.931640625 -62.7158203125 84 c 7
 -62.7158203125 64.6865234375 -45.7158203125 50 -28.7158203125 50 c 7
 -0.7158203125 50 19.2841796875 63 35.2841796875 80 c 5
 42.2841796875 206 l 21xb4
-40.7158203125 240 m 5
 -75.7158203125 218 l 5
 -75.7158203125 218 -91.7158203125 238 -91.7158203125 256 c 7
 -91.7158203125 306 -27.8447265625 347 26.2841796875 347 c 7
 74.2841796875 347 100.284179688 299 100.284179688 261 c 7xaa
 100.284179688 179 95.2841796875 160 95.2841796875 78 c 7
 95.2841796875 62 100.284179688 35 116.284179688 35 c 7
 128.284179688 35 136.284179688 44 147.284179688 56 c 5
 170.284179688 29 l 5
 157.284179688 11 138.284179688 -6 108.284179688 -6 c 31x64
 74.2841796875 -6 53.2841796875 17 42.2841796875 39 c 5
 22.2841796875 18 1.2841796875 -6 -33.7158203125 -6 c 23
 -67.978515625 -6 -119.715820312 43.3671875 -119.715820312 77 c 7xb4
 -119.715820312 160.45703125 -4.7158203125 218 45.2841796875 245 c 5
 45.2841796875 245 47.2841796875 263 47.2841796875 274 c 7
 47.2841796875 291 41.2841796875 314 16.2841796875 314 c 7
 -21.7158203125 314 -51.7158203125 296 -51.7158203125 266 c 7xaa
 -51.7158203125 255 -40.7158203125 240 -40.7158203125 240 c 5
EndSplineSet
Fore
SplineSet
34.9970703125 75 m 1
 34.9988927242 72.9540654313 35 70.9529494662 35 69 c 3
 35 32 70 -5 107 -5 c 0
 137 -5 153 7 170 28 c 1
 146 56 l 1
 136 43 130 36 114 36 c 3
 102 36 97 56 95 75 c 1
 101.96875 177 l 0
 101.96875 266 87.96875 330 87.96875 330 c 1
 70.96875 346 l 1
 28 322 l 1
 28 322 42 264 42 183 c 3
 42 150.192382812 39.1572265625 108.751953125 34.9970703125 75 c 1
55 471 m 3
 74 471 96 453 96 434 c 3
 96 417 77 403 60 403 c 3
 43 403 22 417 22 434 c 3
 22 448 41 471 55 471 c 3
EndSplineSet
EndChar

StartChar: a
Encoding: 97 97 4
Width: 300
VWidth: 0
Flags: HW
LayerCount: 2
Back
Fore
SplineSet
167 206 m 21xb4
 135 191 62 143.931640625 62 84 c 7
 62 64.6865234375 79 50 96 50 c 7
 124 50 144 63 160 80 c 5
 167 206 l 21xb4
84 240 m 5
 49 218 l 5
 49 218 33 238 33 256 c 7
 33 306 96.87109375 347 151 347 c 7
 199 347 225 299 225 261 c 7xaa
 225 179 220 160 220 78 c 7
 220 62 225 35 241 35 c 7
 253 35 261 44 272 56 c 5
 295 29 l 5
 282 11 263 -6 233 -6 c 31x64
 199 -6 178 17 167 39 c 5
 147 18 126 -6 91 -6 c 23
 56.7373046875 -6 5 43.3671875 5 77 c 7xb4
 5 160.45703125 120 218 170 245 c 5
 170 245 172 263 172 274 c 7
 172 291 166 314 141 314 c 7
 103 314 73 296 73 266 c 7xaa
 73 255 84 240 84 240 c 5
EndSplineSet
EndChar

StartChar: s
Encoding: 115 115 5
Width: 242
VWidth: 0
Flags: HW
LayerCount: 2
Back
SplineSet
44 206 m 17xb4
 76 191 149 143.931640625 149 84 c 3
 149 64.6865234375 132 50 115 50 c 3
 87 50 67 63 51 80 c 1
 44 206 l 17xb4
127 240 m 1
 162 218 l 1
 162 218 178 238 178 256 c 3
 178 306 114.12890625 347 60 347 c 3
 12 347 -14 299 -14 261 c 3xaa
 -14 179 -9 160 -9 78 c 3
 -9 62 -14 35 -30 35 c 3
 -42 35 -50 44 -61 56 c 1
 -84 29 l 1
 -71 11 -52 -6 -22 -6 c 27x64
 12 -6 33 17 44 39 c 1
 64 18 85 -6 120 -6 c 19
 154.262695312 -6 206 43.3671875 206 77 c 3xb4
 206 160.45703125 91 218 41 245 c 1
 41 245 39 263 39 274 c 3
 39 291 45 314 70 314 c 3
 108 314 138 296 138 266 c 3xaa
 138 255 127 240 127 240 c 1
EndSplineSet
Fore
SplineSet
5 91 m 1
 27 111 l 1
 27 111 60 50 114 50 c 3
 145 50 170 73 170 91 c 3
 170 145 22 175 22 266 c 3
 22 314 82 347 118 347 c 3
 167.163085938 347 203 314 203 314 c 1
 189 269 l 1
 164 272 l 1
 164 272 145 317 122 317 c 3
 86 317 74 291 74 272 c 3
 74 222 218 188 218 106 c 3
 218 67 168 -5 111 -5 c 3
 60 -5 5 91 5 91 c 1
EndSplineSet
EndChar

StartChar: l
Encoding: 108 108 6
Width: 173
VWidth: 0
Flags: HW
LayerCount: 2
Back
Fore
SplineSet
90 74 m 1
 90 55 100 36 112 36 c 0
 128 36 134 43 144 56 c 1
 168 28 l 1
 151 7 135.119140625 -5 105 -5 c 0
 68 -5 33 34 33 71 c 2
 33 71 50 209 50 276 c 0
 50 387.282873535 44.7339085442 575 12 575 c 0
 2.9443359375 575 -7 565 -16 554 c 1
 -33 584 l 1
 -17 601 -3 607 21 607 c 0
 94.8460376406 607 101.287688607 484.281521085 101.287688607 353.16954418 c 0
 101.287688607 254.532621482 95.1992789241 166.641697193 90 74 c 1
EndSplineSet
EndChar

StartChar: b
Encoding: 98 98 7
Width: 300
VWidth: 0
Flags: HW
LayerCount: 2
Back
Fore
SplineSet
78.0350926235 90.3529198277 m 1
 90.4173028044 56.6243266436 110.586827032 34.9999999989 134 35 c 3
 197 35 213 103 213 172 c 3
 213 239 209 302 154 302 c 3
 119.918392242 302 94.2351047684 280.679838276 79.4253549928 247.189775148 c 1
 78.7557175328 184.34222335 78.1799991776 126.308025675 78.0350926235 90.3529198277 c 1
18 69 m 0
 18.0000001206 159 29 421 29 511 c 3
 29 545 25 576 5 576 c 3
 -4.0556640625 576 -14 566 -23 555 c 1
 -40 585 l 1
 -24 602 -10 608 14 608 c 3
 53.05078125 608 82 565 82 526 c 3
 82 484.970005604 80.9985363235 392.61499779 79.9978052885 300.297537849 c 1
 102.879145865 329.375451806 133.052603067 349 170 349 c 3
 235 349 280 297 280 196 c 3
 280 87 196 -6 116 -6 c 3
 69.5786195693 -6 17.999999955 35.3874347258 18 69 c 0
EndSplineSet
EndChar

StartChar: e
Encoding: 101 101 8
Width: 252
VWidth: 0
Flags: HW
LayerCount: 2
Back
SplineSet
160 302 m 3
 104.2734375 302 71 245 71 171 c 3
 71 95 101 44 140 44 c 3
 203 44 235 103 235 172 c 3
 235 239 215 302 160 302 c 3
9 141 m 3
 9 227.323242188 84 349 176 349 c 3
 241 349 302 297 302 196 c 3
 302 87 202 -14 122 -14 c 3
 49.97265625 -14 9 72 9 141 c 3
EndSplineSet
Fore
SplineSet
68 178 m 1
 94 190 165 226 165 283 c 3
 165 300 159 309 142 309 c 3
 91 309 68 178 68 178 c 1
215 88 m 1
 231 74 l 1
 231 74 179 -12 120 -12 c 3
 54 -12 10 69.9931640625 10 146 c 3
 10 242 98 349 164 349 c 3
 200 349 215 326 215 290 c 3
 215 211 102 159 71 146 c 1
 81 101 95 44 144 44 c 3
 188 44 215 88 215 88 c 1
EndSplineSet
EndChar

StartChar: p
Encoding: 112 112 9
Width: 317
VWidth: 0
Flags: HW
LayerCount: 2
Back
Fore
SplineSet
44 253.108398438 m 4
 44 287.108398438 40 318.108398438 20 318.108398438 c 0
 10.9443359375 318.108398438 1 308.108398438 -8 297.108398438 c 1
 -25 327.108398438 l 1
 -9 344.108398438 5 350.108398438 29 350.108398438 c 0
 68.05078125 350.108398438 97 326 97 287 c 1
 97.06640625 287.083984375 97.1328125 287.168945312 97.2001953125 287.252929688 c 0
 120.056640625 316.268554688 150.162109375 349 187.001953125 349 c 0
 252.001953125 349 297.001953125 297 297.001953125 196 c 0
 297.001953125 87 213.001953125 -6 133.001953125 -6 c 0
 117.026367188 -6 100.439453125 -1.09765625 85.5537109375 6.7021484375 c 1
 85.8408203125 -2.212890625 86.001953125 -11.462890625 86.001953125 -21 c 0
 86.001953125 -73.978515625 76.62109375 -126.286132812 75.001953125 -182 c 1
 49.001953125 -208 l 1
 18.001953125 -185 l 1
 32.9599609375 -94.3701171875 44 138.34375 44 253.108398438 c 4
95.037109375 90.3525390625 m 1
 107.418945312 56.6240234375 127.588867188 35 151.001953125 35 c 0
 214.001953125 35 230.001953125 103 230.001953125 172 c 0
 230.001953125 239 226.001953125 302 171.001953125 302 c 0
 136.919921875 302 111.237304688 267.381835938 96.427734375 233.891601562 c 1
 95.7578125 171.043945312 95.181640625 126.307617188 95.037109375 90.3525390625 c 1
97 287 m 1
 97 245.96875 98.0009765625 379.31640625 97 287 c 1
EndSplineSet
EndChar

StartChar: d
Encoding: 100 100 10
Width: 331
VWidth: 0
Flags: HW
LayerCount: 2
Back
Fore
SplineSet
11 141 m 0
 11 227.323242188 56 349 148 349 c 0
 177.81640625 349 200.609375 345.6796875 218.024414062 339.087890625 c 1
 220.182617188 409.409179688 222 474.415039062 222 511 c 0
 222 545 218 576 198 576 c 0
 188.944335938 576 179 566 170 555 c 1
 153 585 l 1
 169 602 183 608 207 608 c 0
 246.05078125 608 275 565 275 526 c 0
 275 434.4765625 271 195.212890625 271 75 c 0
 271 56 278 36 290 36 c 0
 306 36 312 43 322 56 c 1
 346 28 l 1
 329 7 313.119140625 -5 283 -5 c 0
 254.512695312 -5 227.209960938 16.93359375 216.155273438 43.9140625 c 1
 187.213867188 11.8916015625 150.606445312 -8 114 -8 c 0
 41.97265625 -8 11 72 11 141 c 0
132 302 m 0
 76.2734375 302 63 246 63 172 c 0
 63 96 93 44 132 44 c 0
 170.288085938 44 196.756835938 76.873046875 211.630859375 118.151367188 c 1
 212.525390625 161.579101562 214.254882812 218.051757812 216.047851562 275.534179688 c 1
 204.951171875 293.223632812 181.506835938 302 132 302 c 0
EndSplineSet
EndChar

StartChar: u
Encoding: 117 117 11
Width: 300
VWidth: 0
Flags: HW
LayerCount: 2
Back
Fore
SplineSet
185 156 m 1
 164 111 129 -7 68 -7 c 0
 41 -7 18 27 18 54 c 0
 18 130 13 322 13 322 c 1
 47 346 l 1
 73 329 l 1
 73 329 75 159 75 79 c 0
 75 61 83 51 93 51 c 0
 108 51 165 157 193 251 c 1
 196 317 l 1
 222 343 l 1
 253 320 l 1
 253 320 236 217 236 150 c 0
 236 115 238 36 262 36 c 0
 278 36 284 43 294 56 c 1
 318 28 l 1
 301 7 285 -5 255 -5 c 0
 192 -5 185 80 185 156 c 1
EndSplineSet
EndChar

StartChar: q
Encoding: 113 113 12
Width: 298
VWidth: 0
Flags: HW
LayerCount: 2
Back
Fore
SplineSet
204.96484375 260 m 1
 192.583007812 293.728515625 172.413085938 315.352539062 149 315.352539062 c 3
 86 315.352539062 66 247 66 178 c 3
 66 111 74 48.3525390625 129 48.3525390625 c 3
 163.08203125 48.3525390625 188.764648438 69.6728515625 203.57421875 103.163085938 c 1
 204.244140625 166.010742188 204.8203125 224.044921875 204.96484375 260 c 1
257 282 m 0
 257 192 254 -20 254 -110 c 3
 254 -144 258 -175 278 -175 c 3
 287.055664062 -175 297 -165 306 -154 c 1
 323 -184 l 1
 307 -201 293 -207 269 -207 c 3
 229.94921875 -207 201 -164 201 -125 c 3
 201 -83.9697265625 202.000976562 -42.2626953125 203.001953125 50.0546875 c 1
 180.12109375 20.9775390625 149.947265625 1.3525390625 113 1.3525390625 c 3
 48 1.3525390625 6 54 6 155 c 3
 6 264 87 356.352539062 167 356.352539062 c 3
 213.420898438 356.352539062 257 315.612304688 257 282 c 0
EndSplineSet
EndChar

StartChar: f
Encoding: 102 102 13
Width: 224
VWidth: 0
Flags: HW
LayerCount: 2
Back
Fore
SplineSet
102 -216 m 5
 67 -188 l 5
 67 285 l 5
 28 285 l 5
 0 298 l 29
 14 325 l 5
 67 329 l 5
 67 329 67 431 67 467 c 7
 67 540 89 604 162 604 c 7
 201 604 254 568 254 568 c 5
 216 524 l 5
 216 524 200 566 166 566 c 7
 142.083478514 566 124 538 124 467 c 7
 124 428 124 376 124 337 c 29
 210 339 l 5
 230 323 l 29
 202 298 l 5
 124 298 l 5
 124 -184 l 5
 102 -216 l 5
EndSplineSet
EndChar

StartChar: h
Encoding: 104 104 14
Width: 300
VWidth: 0
Flags: HW
LayerCount: 2
Back
Fore
SplineSet
87 177 m 1
 108 222 143 340 204 340 c 3
 231 340 254 306 254 279 c 3
 254 206 240 161 240 99 c 3
 240 79 240 46 248 46 c 3
 257 46 263 48 267 55 c 1
 295 24 l 17
 280 10 266 -9 240 -9 c 3
 210 -9 180 38 180 68 c 3
 180 132 197 208 197 254 c 3
 197 272 189 282 179 282 c 3
 164 282 107 176 79 82 c 1
 76 16 l 1
 50 -10 l 1
 19 13 l 1
 36 115 44 407 44 512 c 3
 44 546 40 577 20 577 c 3
 11 577 1 567 -8 556 c 1
 -25 586 l 1
 -9 603 5 609 29 609 c 3
 68 609 97 566 97 527 c 3
 97 462 87 295 87 177 c 1
EndSplineSet
EndChar

StartChar: v
Encoding: 118 118 15
Width: 288
VWidth: 0
Flags: HW
LayerCount: 2
Back
Fore
SplineSet
110 -20 m 25
 80 4 l 1
 71.306640625 92.37890625 24.58984375 283.104492188 10 329 c 1
 43 350 l 1
 66 329 l 1
 77.3388671875 292.77734375 113.07421875 128.928710938 125 64 c 1
 158.092773438 128.861328125 199 186.71484375 199 281 c 3
 199 297 188 314 188 314 c 1
 223 354 l 1
 223 354 254 334 254 314 c 3
 254 201.875 187.004882812 89.8037109375 149 2 c 1
 110 -20 l 25
EndSplineSet
EndChar

StartChar: m
Encoding: 109 109 16
Width: 466
VWidth: 0
Flags: HW
LayerCount: 2
Back
Fore
SplineSet
205 340 m 3
 144 340 109 222 88 177 c 5
 88 266 74 330 74 330 c 5
 57 346 l 5
 23 322 l 5
 23 322 37 264 37 183 c 7
 37 116 20 13 20 13 c 13
 51 -10 l 5
 77 16 l 5
 80 82 l 5
 108 176 165 282 180 282 c 3
 190 282 198 272 198 254 c 3
 198 201 177 22 175 13 c 9
 206 -10 l 1
 232 16 l 1
 235 82 l 1
 263 176 320 282 335 282 c 3
 345 282 353 272 353 254 c 3
 353 208 336 132 336 68 c 3
 336 38 366 -9 396 -9 c 3
 422 -9 436 10 451 24 c 9
 423 55 l 1
 419 48 413 46 404 46 c 3
 396 46 396 79 396 99 c 3
 396 161 410 206 410 279 c 3
 410 306 387 340 360 340 c 3
 299 340 264 222 243 177 c 1
 243 224 240 340 205 340 c 3
EndSplineSet
EndChar

StartChar: r
Encoding: 114 114 17
Width: 339
VWidth: 0
Flags: HW
LayerCount: 2
Back
Fore
SplineSet
225 270 m 0
 225 287.9140625 208.415039062 303 198 303 c 0
 188.617727263 303 156.589921976 254.65670287 126.8357287 195.555730347 c 1
 133.220251013 193.612634948 139.481281042 192 148 192 c 0
 191 192 225 224.479492188 225 270 c 0
100.534461749 138.543703743 m 1
 92.4746336268 119.232541627 85.3807302855 100.008948096 80 82 c 1
 77 16 l 1
 51 -10 l 1
 20 13 l 1
 20 13 37 116 37 183 c 0
 37 264 21 331 21 331 c 1
 55 355 l 1
 72 339 l 1
 72 339 88 266 88 177 c 1
 109.057617188 222.354492188 151.73046875 345 213 345 c 0
 240 345 272 306 272 279 c 0
 272 173.727692319 188 159 140 153 c 1
 192 115 242.98333796 56 273 56 c 0
 292 56 304 60 316 77 c 1
 339 54 l 1
 328 27 310 -10 282 -10 c 0
 225.247761805 -10 163.869243029 98.254965584 100.534461749 138.543703743 c 1
EndSplineSet
EndChar

StartChar: scriptr
Encoding: 65536 -1 18
Width: 301
VWidth: 0
Flags: HW
LayerCount: 2
Back
Fore
SplineSet
98 200 m 1
 105 223 110.825195312 236.344726562 115 260 c 0
 118 277 117 311 97 311 c 3
 79 311 67 277 67 253 c 3
 67 210.168945312 83 200 98 200 c 1
19 6 m 1
 7 22 l 17
 20.8822134346 43.4543298535 66.1515524348 121.378881087 82 161 c 17
 54 161 25 203 25 239 c 3
 25 292 54 347 107 347 c 27
 136 347 146 314 146 285 c 3
 146 253 141 231 133 211 c 9
 162 221 169 232 200 232 c 3
 219 232 236 219 236 200 c 3
 236 143 204 123 204 66 c 27
 204 54 208 38 220 38 c 3
 244 38 260 49 276 65 c 9
 295 45 l 17
 277 24 255 0 221 0 c 3
 180 0 145 40 145 81 c 27
 145 128 193 194 193 194 c 1
 163 178 108 158 108 158 c 1
 89 110 29.729020703 20.5752734078 19 6 c 1
EndSplineSet
EndChar

StartChar: y
Encoding: 121 121 19
Width: 279
VWidth: 0
Flags: HW
LayerCount: 2
Back
Fore
SplineSet
87 -8 m 5
 78 80 25 283 10 329 c 1
 43 350 l 1
 66 329 l 1
 77 293 120 117 132 52 c 5
 165 117 199 187 199 281 c 3
 199 297 188 314 188 314 c 1
 223 354 l 1
 223 354 254 334 254 314 c 3
 254 202 204 112 149 2 c 8
 102 -79 56 -163 29 -207 c 1
 16 -213 l 1
 8 -193 l 5
 87 -8 l 5
EndSplineSet
EndChar

StartChar: c
Encoding: 99 99 20
Width: 251
VWidth: 0
Flags: HW
LayerCount: 2
Back
Fore
SplineSet
142 309 m 3
 92.1279734764 309 67.6133412353 244.3874088 67.6133412353 178.971352381 c 3
 67.6133412353 111.907897562 93.3782440827 44 144 44 c 3
 188 44 215 88 215 88 c 1
 231 74 l 1
 231 74 185 -14 126 -14 c 3
 60 -14 10 70 10 146 c 3
 10 223 85 348 150 348 c 3
 184 348 242 312 242 312 c 1
 204 268 l 1
 200 277 182 309 142 309 c 3
EndSplineSet
EndChar

StartChar: j
Encoding: 106 106 21
Width: 134
VWidth: 0
Flags: HW
LayerCount: 2
Back
Fore
SplineSet
95 77 m 7
 95 156 93 329 93 329 c 5
 67 346 l 5
 33 322 l 5
 33 322 41 163 41 77 c 7
 41 -24 26 -134 20 -190 c 5
 33 -207 l 5
 44 -197 l 5
 60 -139 95 -33 95 77 c 7
63 471 m 3
 82 471 104 453 104 434 c 3
 104 417 85 403 68 403 c 3
 51 403 30 417 30 434 c 3
 30 448 49 471 63 471 c 3
EndSplineSet
EndChar

StartChar: t
Encoding: 116 116 22
Width: 203
VWidth: 0
Flags: HW
LayerCount: 2
Back
Fore
SplineSet
58 296 m 1
 19 296 l 1
 19 296 -4 307 -9 309 c 1
 5 336 l 1
 59 340 l 1
 59 392 l 1
 116 481 l 2
 116 477 115 472 115 467 c 0
 115 428 116 379 116 340 c 1
 176 342 l 1
 196 326 l 1
 168 301 l 1
 117 296 l 1
 117 296 110 137 110 96 c 3
 110 76 110 43 118 43 c 3
 127 43 133 45 137 52 c 1
 165 21 l 1
 150 7 136 -12 110 -12 c 3
 80 -12 50 35 50 65 c 3
 50 100 58 296 59 296 c 1
 58 296 l 1
EndSplineSet
EndChar

StartChar: w
Encoding: 119 119 23
Width: 425
VWidth: 0
Flags: HW
LayerCount: 2
Back
Fore
SplineSet
110 -10 m 1
 80 14 l 1
 71.306640625 102.37890625 30.58984375 283.104492188 16 329 c 1
 49 350 l 1
 72 329 l 1
 83.3388671875 292.77734375 115.07421875 139.928710938 127 75 c 1
 159.92880616 139.539954777 185.772460938 282.010742188 185.772460938 282.010742188 c 1
 182.319335938 294.543945312 176.783203125 318.244140625 172.926757812 325.315429688 c 0
 171.658203125 327.641601562 170.772460938 329.010742188 170.772460938 329.010742188 c 2
 204.772460938 350.010742188 l 1
 227.772460938 329.010742188 l 1
 239.111328125 292.788085938 296.07421875 136.928710938 308 72 c 1
 341.092773438 136.861328125 340 186.71484375 340 281 c 0
 340 297 329 314 329 314 c 1
 364 354 l 1
 364 354 395 334 395 314 c 0
 395 201.875 368.004882812 99.8037109375 330 12 c 1
 291 -10 l 1
 261 14 l 1
 256.357744941 61.1943476531 230.645507812 134.732421875 215 200 c 1
 194.065429688 131.549804688 172.457677897 66.1949090978 149 12 c 1
 110 -10 l 1
EndSplineSet
EndChar

StartChar: k
Encoding: 107 107 24
Width: 302
VWidth: 0
Flags: HW
LayerCount: 2
Back
Fore
SplineSet
44 511 m 3
 44 545 40 576 20 576 c 3
 10.9443359375 576 1 566 -8 555 c 1
 -25 585 l 1
 -9 602 5 608 29 608 c 3
 68.05078125 608 97 565 97 526 c 3
 97 466.686111487 90.3935329259 300.111907736 87.3424614688 181.448791176 c 1
 133.412138647 203.386732689 197 236.895507812 197 289 c 3
 197 305 186 322 186 322 c 1
 221 362 l 1
 235 353 257 331 257 301 c 3
 257 266 225 232 176 197 c 1
 218 136 271 59 284 8 c 1
 245 -14 l 1
 215 10 l 1
 210 57 164 120 130 169 c 1
 132.139534884 172.209302326 l 1
 86.5229039504 146.425989189 l 1
 85.5692584753 100.186806372 83.3115234375 47.5234375 80.6787109375 9 c 1
 54.6787109375 -17 l 1
 14 6 l 1
 34.044921875 126.271484375 44 399.196824667 44 511 c 3
EndSplineSet
EndChar

StartChar: g
Encoding: 103 103 25
Width: 246
VWidth: 0
Flags: HW
LayerCount: 2
Back
Fore
SplineSet
112.799804688 309.479492188 m 0
 68.21875 309.479492188 57.6005859375 270.719726562 57.6005859375 220.399414062 c 0
 57.6005859375 168.719726562 81.6005859375 134.040039062 112.799804688 134.040039062 c 0
 163.200195312 134.040039062 172.799804688 174.159179688 172.799804688 221.079101562 c 0
 172.799804688 266.639648438 156.799804688 309.479492188 112.799804688 309.479492188 c 0
8 200 m 0
 8 258.69921875 52 341.439453125 125.600585938 341.439453125 c 0
 149.911132812 341.439453125 176 338 182 329 c 1
 240 395 l 1
 262 375 l 1
 206 309 l 1
 216.08203125 293.1796875 226.400390625 261.544921875 226.400390625 237.399414062 c 0
 226.400390625 163.279296875 162.400390625 98.6796875 98.400390625 98.6796875 c 0
 82.2197265625 98.6796875 67.998046875 102.969726562 55.9111328125 110.178710938 c 1
 55.896484375 109.530273438 55.888671875 108.876953125 55.888671875 108.21875 c 0
 55.888671875 97.6181640625 57.8505859375 85.8505859375 64 75 c 0
 76.47265625 52.990234375 101 51 137 51 c 0
 213.439822507 51 257.702148438 19.796875 257.702148438 -21.03125 c 0
 257.702148438 -176 139.955415617 -210 68 -210 c 0
 13 -210 -26 -161 -26 -106 c 0
 -26 -49 2 -8 33 24 c 1
 33 24 0 49.494140625 0 66 c 1
 34.7294921875 127.975585938 l 1
 17.310546875 147.86328125 8 174.993164062 8 200 c 0
50 9 m 1
 30 -22 20 -56.298828125 20 -92 c 0
 20 -125 55 -142 88 -142 c 0
 132.989710662 -142 230 -130 230 -50.544921875 c 0
 230 -27.9150390625 186.58171335 -10 108 -10 c 0
 91.8759765625 -10 66.166015625 -1.0419921875 50 9 c 1
EndSplineSet
EndChar

StartChar: z
Encoding: 122 122 26
Width: 290
VWidth: 0
Flags: HW
LayerCount: 2
Back
Fore
SplineSet
247.5 318.28125 m 1
 238 239 78 89 69 38 c 1
 95.87109375 27.36328125 129.688476562 17.5107421875 160.224609375 17.5107421875 c 3
 196.234375 17.5107421875 216.172851562 39.5 229 54 c 1
 281 43 l 1
 281 5.8701171875 247.03515625 -26.162109375 196.3671875 -26.162109375 c 3
 125.861328125 -26.162109375 49.892578125 7.85546875 0 36 c 1
 12 108 168 241.28125 178.5 316.28125 c 1
 165.638671875 317.869140625 155.326171875 318.944335938 146.418945312 318.944335938 c 3
 102 318.944335938 73.3125 290.28125 73.3125 260.172851562 c 1
 20.240234375 257.28125 l 1
 19.3076171875 261.420898438 18.662109375 266.705078125 18.662109375 272.612304688 c 3
 18.662109375 325.541015625 70.0068359375 350 121.297851562 350 c 3
 171.2578125 350 214.958984375 336.637695312 247.5 318.28125 c 1
EndSplineSet
EndChar

StartChar: x
Encoding: 120 120 27
Width: 271
VWidth: 0
Flags: HW
LayerCount: 2
Back
Fore
SplineSet
198 281 m 7
 198 297 187 314 187 314 c 5
 222 354 l 5
 236 345 258 323 258 293 c 7
 258 258 202 232 153 197 c 1
 195 136 248 53 261 2 c 1
 222 -20 l 1
 192 4 l 1
 187 51 141 120 107 169 c 1
 72 141 61 91 61 48 c 3
 61 32 72 15 72 15 c 1
 37 -25 l 1
 24 -17 3 4 3 33 c 3
 3 89 41 149 94 188 c 1
 52 247 28 281 15 332 c 5
 54 354 l 5
 84 330 l 5
 88 287 106 266 139 217 c 1
 167 242 198 258 198 281 c 7
EndSplineSet
EndChar

StartChar: S
Encoding: 83 83 28
Width: 299
VWidth: 0
Flags: HW
LayerCount: 2
Back
Fore
SplineSet
0 124 m 1
 23 145 l 1
 23 145 87 51 155 51 c 3
 197 51 241 81 241 105 c 3
 241 209 23 238 23 362 c 3
 23 427 104 472 153 472 c 3
 220 472 269 427 269 427 c 1
 255 382 l 1
 227 387 l 1
 227 387 211 444 159 444 c 3
 110 444 75 417 75 391 c 3
 75 304 289 240 289 144 c 3
 289 91 222 -7 144 -7 c 3
 75 -7 0 124 0 124 c 1
EndSplineSet
EndChar

StartChar: I
Encoding: 73 73 29
Width: 268
VWidth: 0
Flags: HW
LayerCount: 2
Back
Fore
SplineSet
107 427 m 1
 68 427 l 1
 40 440 l 1
 54 467 l 1
 119.748046875 471.251953125 233 481 233 481 c 1
 253 465 l 1
 225 440 l 1
 164 440 l 1
 161.186002392 439.358211072 l 1
 164.565045577 399.604529648 174 282.062729399 174 209 c 1
 164.310880829 39 l 1
 203 39 l 1
 231 26 l 1
 217 -1 l 1
 151.251953125 -5.251953125 35 -15 35 -15 c 1
 15 1 l 1
 43 26 l 1
 107 26 l 1
 107.596947429 26.1361459048 l 1
 111.827060127 61.6746663579 123 160.683212925 123 215 c 0
 123 279.252571467 114.190748185 386.292937465 110.547974969 427.809187274 c 1
 107 427 l 1
EndSplineSet
EndChar

StartChar: O
Encoding: 79 79 30
Width: 407
VWidth: 0
Flags: HW
LayerCount: 2
Back
Fore
SplineSet
195 428 m 3
 120 428 89 331 89 231 c 3
 89 98 141 45 193 45 c 3
 278 45 306 140 306 233 c 3
 306 360 279 428 195 428 c 3
30 191 m 3
 30 308 93 472 217 472 c 3
 277.208007812 472 377 402 377 265 c 3
 377 118 279 -11 171 -11 c 3
 91 -11 30 98 30 191 c 3
EndSplineSet
EndChar

StartChar: A
Encoding: 65 65 31
Width: 357
VWidth: 0
Flags: HW
LayerCount: 2
Back
Fore
SplineSet
209 480 m 1
 239 456 l 1
 248 368 324 49 339 3 c 1
 306 -18 l 1
 283 3 l 1
 278 18 264 78 248 147 c 1
 215 152 175 155 139 155 c 0
 122 155 106 155 92 153 c 1
 81 116 73 80 73 53 c 0
 73 37 84 20 84 20 c 1
 49 -20 l 1
 49 -20 18 0 18 20 c 0
 18 132 132 370 170 458 c 1
 209 480 l 1
239 187 m 1
 220 273 200 363 194 396 c 1
 174 357 135 277 107 198 c 1
 112 198 116 198 122 198 c 0
 162 198 202 194 239 187 c 1
EndSplineSet
EndChar

StartChar: V
Encoding: 86 86 32
Width: 347
VWidth: 0
Flags: HW
LayerCount: 2
Back
Fore
SplineSet
148 -20 m 29
 118 4 l 5
 109.306640625 92.37890625 32.58984375 411.104492188 18 457 c 5
 51 478 l 5
 74 457 l 5
 85.3388671875 420.77734375 151.07421875 128.928710938 163 64 c 5
 196.092773438 128.861328125 284 312.71484375 284 407 c 7
 284 423 273 440 273 440 c 5
 308 480 l 5
 308 480 339 460 339 440 c 7
 339 327.875 225.004882812 89.8037109375 187 2 c 5
 148 -20 l 29
EndSplineSet
EndChar

StartChar: N
Encoding: 78 78 33
Width: 405
VWidth: 0
Flags: HW
LayerCount: 2
Back
SplineSet
182 475 m 5
 202 459 l 5
 174 434 l 5
 129 440 l 5
 129 260 l 5
 162 250 233 241 292 241 c 7
 331 241 366 245 381 254 c 5
 381 427 l 5
 342 427 l 5
 314 440 l 5
 328 467 l 5
 394 471 507 475 507 475 c 5
 527 459 l 5
 499 434 l 5
 438 440 l 5
 438 39 l 5
 477 39 l 5
 505 26 l 5
 491 -1 l 5
 425 -5 321 -6 321 -6 c 5
 301 10 l 5
 329 35 l 5
 381 26 l 5
 381 206 l 5
 361 200 336 198 309 198 c 7
 249 198 178 209 129 222 c 5
 129 39 l 5
 168 39 l 5
 196 26 l 5
 182 -1 l 5
 116 -5 0 -6 0 -6 c 5
 -20 10 l 5
 8 35 l 5
 72 26 l 5
 72 427 l 5
 33 427 l 5
 5 440 l 5
 19 467 l 5
 85 471 182 475 182 475 c 5
EndSplineSet
Fore
SplineSet
368 -2 m 27
 368 -19 329 -24 329 -24 c 1
 299 0 l 1
 294 47 195 195 161 244 c 0
 141.766849215 271.017997532 116.662046221 306.214367782 93.8480754105 341.330597132 c 1
 96.6344350797 296.996201326 99 262 99 212 c 27
 99 130 88 3 88 3 c 1
 62 -23 l 1
 31 0 l 1
 31 0 48 151 48 218 c 3
 48 313.670053246 37.5650354818 456.715172087 35 462 c 1
 57 494 l 1
 75.0053706137 481.320153587 90.6105508467 466.264850823 105 450 c 1
 109 407 187 302 220 253 c 0
 242.202785227 220.753097646 284.874670806 163.618749789 312.291130976 108.994246031 c 1
 315.867098757 147.39091915 319 189.237694523 319 218 c 3
 319 299 305 470 305 470 c 1
 339 494 l 1
 356 478 l 1
 356 478 370 301 370 212 c 3
 370 142.170725402 368 81 368 -2 c 27
EndSplineSet
EndChar

StartChar: Z
Encoding: 90 90 34
Width: 371
VWidth: 0
Flags: HW
LayerCount: 2
Back
Fore
SplineSet
352 453 m 1
 342 374 78 92 69 41 c 1
 96 30 219 18 250 18 c 3
 286 18 306 40 319 54 c 1
 371 43 l 1
 371 6 337 -26 286 -26 c 3
 215 -26 50 -3 0 25 c 1
 12 97 266 348 276 423 c 1
 263 425 166 436 157 436 c 3
 100 436 84 427 84 377 c 1
 31 374 l 1
 30 378 29 384 29 390 c 3
 29 467 46 467 132 467 c 3
 182 467 338 463 352 453 c 1
EndSplineSet
EndChar

StartChar: H
Encoding: 72 72 35
Width: 437
VWidth: 0
Flags: HW
LayerCount: 2
Back
Fore
SplineSet
395 230 m 3
 395 319 381 468 381 468 c 1
 364 484 l 1
 330 460 l 1
 330 460 342.160532379 335.788847846 343.814554742 253.321676726 c 1
 328.213574965 244.798731607 294.006153194 240.999999996 256 241 c 0
 199.058571572 241 130.93991957 249.38291768 96.5908714048 258.957260654 c 1
 94.2835377456 347.910919707 83 468 83 468 c 2
 66 484 l 1
 32 460 l 1
 32 460 46 317 46 236 c 0
 46 169 29 13 29 13 c 1
 60 -10 l 1
 86 16 l 1
 96.5411800169 221.073865783 l 1
 145.378685408 208.481823836 214.430254622 198 273 198 c 0
 299.193199118 198 323.504138483 199.882259753 343.193795623 205.472794241 c 1
 339.818880979 130.632084274 327 13 327 13 c 2
 358 -10 l 1
 384 16 l 1
 395 230 l 3
EndSplineSet
EndChar

StartChar: J
Encoding: 74 74 36
Width: 240
VWidth: 0
Flags: HW
LayerCount: 2
Back
Fore
SplineSet
92 427 m 1
 53 427 l 1
 25 440 l 1
 39 467 l 1
 105 471 205 481 205 481 c 1
 225 465 l 1
 197 440 l 1
 149 440 l 1
 143.715244066 438.794704787 l 1
 147.452897455 397.826624177 156 296.540121647 156 227 c 3
 156 177.561408212 150 77 150 77 c 1
 150 -29.1060118559 81.2563793325 -107.776683281 42 -146 c 1
 22 -146 l 1
 15 -123 l 1
 92.5108647904 -65.3637159251 105 61.5133714836 105 233 c 3
 105 294.05088415 97.0467998206 385.778397564 93.12928595 427.257556445 c 1
 92 427 l 1
EndSplineSet
EndChar

StartChar: X
Encoding: 88 88 37
Width: 352
VWidth: 0
Flags: HW
LayerCount: 2
Back
SplineSet
206 476 m 25
 236 452 l 1
 244.693359375 363.62109375 321.41015625 44.8955078125 336 -1 c 1
 303 -22 l 1
 280 -1 l 1
 268.661132812 35.22265625 202.92578125 327.071289062 191 392 c 1
 157.907226562 327.138671875 70 143.28515625 70 49 c 3
 70 33 81 16 81 16 c 1
 46 -24 l 1
 46 -24 15 -4 15 16 c 3
 15 128.125 128.995117188 366.196289062 167 454 c 1
 206 476 l 25
EndSplineSet
Fore
SplineSet
280 403 m 3
 280 419 269 436 269 436 c 1
 304 476 l 1
 318 467 340 445 340 415 c 3
 340 380 243 288 194 253 c 1
 236 192 329 49 342 -2 c 1
 303 -24 l 1
 273 0 l 1
 268 47 185 169 151 218 c 1
 116 190 71 91 71 48 c 3
 71 32 82 15 82 15 c 1
 47 -25 l 1
 34 -17 13 4 13 33 c 3
 13 89 82 205 135 244 c 1
 93 303 23 401 10 452 c 1
 49 474 l 1
 79 450 l 1
 83 407 143 329 176 280 c 1
 204 305 280 380 280 403 c 3
EndSplineSet
EndChar

StartChar: W
Encoding: 87 87 38
Width: 512
VWidth: 0
Flags: HW
LayerCount: 2
Back
Fore
SplineSet
144 -20 m 1
 114 4 l 1
 105 92 29 411 14 457 c 1
 47 478 l 1
 70 457 l 1
 81 421 147 129 159 64 c 1
 192 129 233 313 233 407 c 1
 233 423 222 440 222 440 c 1
 257 480 l 1
 266 474 276 465 285 457 c 1
 296 421 362 129 374 64 c 1
 407 129 442 313 442 407 c 0
 442 423 431 440 431 440 c 1
 466 480 l 1
 466 480 497 460 497 440 c 0
 497 328 436 90 398 2 c 1
 359 -20 l 1
 329 4 l 1
 324 60 291 206 264 319 c 1
 228 204 210 65 183 2 c 1
 144 -20 l 1
EndSplineSet
EndChar

StartChar: Y
Encoding: 89 89 39
Width: 331
VWidth: 0
Flags: HW
LayerCount: 2
Back
Fore
SplineSet
207 28 m 0
 141 -60 64 -110 14 -127 c 1
 -5 -118 l 1
 -1 -95 l 1
 47 -85 104 -26 153 37 c 0
 189 84 203 123 203 123 c 1
 169 171 20 411 5 457 c 1
 38 478 l 1
 61 457 l 1
 72 421 195 225 229 187 c 1
 249 230 271 347 271 407 c 0
 271 423 260 440 260 440 c 1
 295 480 l 1
 295 480 326 460 326 440 c 0
 326 305 281 127 207 28 c 0
EndSplineSet
EndChar

StartChar: M
Encoding: 77 77 40
Width: 534
VWidth: 0
Flags: HW
LayerCount: 2
Back
Fore
SplineSet
377 480 m 5
 338 458 l 5
 311 395 293 256 257 141 c 5
 230 254 197 400 192 456 c 5
 162 480 l 5
 109 423 l 5
 72 325 30 184 30 26 c 31
 30 16 34 0 34 0 c 5
 62 -15 l 5
 90 0 l 5
 87 39 l 7
 87 162 110 322 147 396 c 5
 159 331 225 39 236 3 c 5
 245 -5 255 -14 264 -20 c 5
 299 20 l 5
 299 20 288 37 288 53 c 4
 288 147 329 331 362 396 c 5
 375.118164062 327.78515625 435.430664062 118.810546875 440 0 c 5
 474 -15 l 5
 504 0 l 5
 479.325195312 120.291015625 424.193359375 331.114257812 409 440 c 5
 377 480 l 5
EndSplineSet
EndChar
